<svg width="28" height="24" viewBox="0 0 28 24" fill="none" xmlns="http://www.w3.org/2000/svg">
<path d="M27.0606 7.06297C27.0606 8.66768 26.4521 10.2862 25.2213 11.5174L23.1745 13.5648L14.3649 22.3768C14.3234 22.4183 14.3096 22.4322 14.2681 22.4598C14.2266 22.4322 14.2128 22.4183 14.1713 22.3768L3.31495 11.5174C2.0841 10.2862 1.47559 8.68151 1.47559 7.06297C1.47559 5.44444 2.0841 3.82591 3.31495 2.59472C5.77664 0.146162 9.7596 0.146162 12.2213 2.59472L14.2543 4.64209L16.3011 2.59472C18.7628 0.146162 22.7319 0.146162 25.1936 2.59472C26.4521 3.82591 27.0606 5.43061 27.0606 7.06297Z" stroke="#E27A6C" stroke-width="1.5" stroke-linecap="round" stroke-linejoin="round"/>
</svg>
